# xmcd
#
# Track frame offsets: 
#        150
#        21728
#        42596
#        70399
#        92176
#        115513
#        140861
#        159924
#
# Disc length: 2475 seconds
#
# Revision: 0
# Processed by: cddbd v1.5.2PL0 Copyright (c) Steve Scherf et al.
# Submitted via: ExactAudioCopyFreeDBPlugin 1.0
#
DISCID=7309a908
DTITLE=Kaya - Dhuk Puk
DYEAR=2005
DGENRE=Bengali Band
TTITLE0=Dhuk Puk
TTITLE1=Missed Call
TTITLE2=Ei Mon
TTITLE3=Raja-Rani
TTITLE4=Aami Chunte Chai
TTITLE5=Swapane Ful Fontali
TTITLE6=Haath Baralei Bondhu Pabi
TTITLE7=Bibagi Mon
EXTD=
EXTT0=
EXTT1=
EXTT2=
EXTT3=
EXTT4=
EXTT5=
EXTT6=
EXTT7=
PLAYORDER=
